<?xml version="1.0" encoding="UTF-8"?>
<svg version="1.1" xmlns="http://www.w3.org/2000/svg" width="32" height="32">
<path d="M0 0 C10.56 0 21.12 0 32 0 C32 10.56 32 21.12 32 32 C21.44 32 10.88 32 0 32 C0 21.44 0 10.88 0 0 Z " fill="#5935B9" transform="translate(0,0)"/>
<path d="M0 0 C11.43959507 -0.3690192 11.43959507 -0.3690192 13.91015625 1.2578125 C15.30969535 3.49506856 15.13178002 4.50469519 14.625 7.0625 C13.64441806 10.77375378 13.64441806 10.77375378 15 13 C13.0625 12.625 13.0625 12.625 11 12 C10.67 11.34 10.34 10.68 10 10 C7.6859378 9.26924352 5.35171131 8.59861742 3 8 C3 9.65 3 11.3 3 13 C2.01 13 1.02 13 0 13 C0 8.71 0 4.42 0 0 Z " fill="#BEB9E6" transform="translate(8,9)"/>
<path d="M0 0 C1.95803507 -0.05389087 3.91648909 -0.09274217 5.875 -0.125 C7.51082031 -0.15980469 7.51082031 -0.15980469 9.1796875 -0.1953125 C12 0 12 0 14 2 C13.94140625 3.875 13.94140625 3.875 13.5625 6 C12.94303456 9.10060539 12.94303456 9.10060539 14 12 C10.75728494 11.4409112 9.06942576 10.5867822 7 8 C7 7.34 7 6.68 7 6 C8.32 5.67 9.64 5.34 11 5 C11 4.34 11 3.68 11 3 C7.7 2.67 4.4 2.34 1 2 C0.67 2.99 0.34 3.98 0 5 C0 3.35 0 1.7 0 0 Z " fill="#F6F4FB" transform="translate(9,10)"/>
<path d="M0 0 C2.97 0 5.94 0 9 0 C9 1.32 9 2.64 9 4 C7.35 4 5.7 4 4 4 C4 3.34 4 2.68 4 2 C2.68 2 1.36 2 0 2 C0 1.34 0 0.68 0 0 Z " fill="#6045C0" transform="translate(11,12)"/>
</svg>
